<svg xmlns="http://www.w3.org/2000/svg" xmlns:xlink="http://www.w3.org/1999/xlink" width="200" zoomAndPan="magnify" viewBox="0 0 150 149.999998" height="200" preserveAspectRatio="xMidYMid meet" version="1.0"><path fill="#ffffff" d="M 35.15625 32.8125 C 38.527344 35.15625 38.527344 35.15625 42.1875 39.84375 C 42.539062 42.957031 42.769531 46.085938 42.921875 49.21875 C 43.164062 54.152344 43.164062 54.152344 44.53125 58.59375 C 51.371094 63.484375 51.371094 63.484375 58.59375 65.625 C 56.835938 70.167969 56.835938 70.167969 53.90625 75 C 48.925781 76.757812 48.925781 76.757812 44.53125 77.34375 L 44.53125 82.03125 L 49.660156 83.203125 C 56.59375 86.902344 58.421875 89.070312 62.550781 95.507812 C 68.949219 106.621094 72.65625 115.9375 72.65625 128.90625 L 77.34375 128.90625 L 78.039062 124.953125 C 80.59375 111.914062 84.132812 100.285156 91.40625 89.0625 C 96.386719 84.375 96.386719 84.375 100.78125 82.03125 L 105.46875 82.03125 L 105.46875 77.34375 L 93.75 72.65625 C 94.335938 68.261719 94.335938 68.261719 96.09375 63.28125 L 100.78125 61.085938 L 105.46875 58.59375 C 107.253906 52.996094 107.253906 52.996094 107.8125 46.875 C 108.839844 41.75 108.839844 41.75 110.15625 37.5 L 114.84375 32.8125 C 118.855469 39.03125 119.613281 43.15625 120.253906 50.664062 C 120.367188 53.992188 120.46875 57.320312 120.558594 60.644531 C 121.316406 79.355469 124.320312 96.648438 128.90625 114.84375 L 114.84375 107.8125 L 105.46875 121.875 L 91.40625 112.5 L 89.648438 117.480469 C 86.34375 125.085938 82.082031 131.492188 77.34375 138.28125 L 70.3125 135.9375 C 67.0625 131.773438 67.0625 131.773438 64.015625 126.710938 L 60.910156 121.664062 C 58.59375 117.1875 58.59375 117.1875 58.59375 112.5 L 44.53125 121.875 L 35.15625 107.8125 L 21.09375 114.84375 L 22.550781 109.578125 C 26.980469 92.257812 29.101562 76.023438 29.582031 58.1875 C 29.902344 48.753906 31.011719 41.335938 35.15625 32.8125 " fill-opacity="1" fill-rule="nonzero"/><path fill="#ffffff" d="M 82.332031 8.421875 C 91.90625 9.777344 97.425781 13.5 105.46875 18.75 C 112.019531 19.542969 112.019531 19.542969 117.1875 18.75 C 110.808594 30.125 103.09375 38.257812 92.558594 45.996094 C 86.351562 49.421875 82.046875 50.742188 75 51.269531 C 67.953125 50.742188 63.648438 49.421875 57.441406 45.996094 C 46.90625 38.261719 39.191406 30.125 32.8125 18.75 L 37.648438 19.335938 C 44.992188 19.257812 44.992188 19.257812 51.710938 14.0625 C 61.597656 8.003906 70.953125 8.082031 82.332031 8.421875 M 72.65625 53.90625 C 77.050781 55.664062 77.050781 55.664062 82.03125 58.59375 C 84.960938 62.988281 84.960938 62.988281 86.71875 67.96875 L 86.71875 77.34375 L 91.40625 77.34375 L 91.40625 82.03125 L 88.332031 84.816406 C 82.601562 90.96875 80.433594 97.671875 77.34375 105.46875 L 72.65625 105.46875 L 70.769531 101.019531 L 68.261719 95.214844 L 65.789062 89.449219 C 63.460938 84.050781 63.460938 84.050781 58.59375 79.6875 L 60.644531 75.734375 C 63.402344 70.265625 63.402344 70.265625 65.625 64.160156 C 67.96875 58.59375 67.96875 58.59375 72.65625 53.90625 " fill-opacity="1" fill-rule="nonzero"/><path fill="#e6eae6" d="M 49.21875 46.875 L 60.9375 53.90625 L 58.59375 58.59375 C 54.054688 57.863281 54.054688 57.863281 49.21875 56.25 L 46.875 49.21875 Z M 98.4375 46.875 L 103.125 51.5625 L 100.78125 56.25 C 95.949219 57.714844 95.949219 57.714844 91.40625 58.59375 L 91.40625 51.5625 Z M 98.4375 46.875 " fill-opacity="1" fill-rule="nonzero"/></svg>